<svg class="avatar" xmlns="http://www.w3.org/2000/svg" viewBox="0 0 600 600" fill="none" shape-rendering="auto"><metadata xmlns:rdf="http://www.w3.org/1999/02/22-rdf-syntax-ns#" xmlns:xsi="http://www.w3.org/2001/XMLSchema-instance" xmlns:dc="http://purl.org/dc/elements/1.1/" xmlns:dcterms="http://purl.org/dc/terms/"><rdf:rdf><rdf:description><dc:title>Lorelei Neutral</dc:title><dc:creator>Lisa Wischofsky</dc:creator><dc:source xsi:type="dcterms:URI">https://www.figma.com/community/file/1198749693280469639</dc:source><dcterms:license xsi:type="dcterms:URI">https://creativecommons.org/publicdomain/zero/1.0/</dcterms:license><dc:rights>Remix of „Lorelei Neutral” (https://www.figma.com/community/file/1198749693280469639) by „Lisa Wischofsky”, licensed under „CC0 1.0” (https://creativecommons.org/publicdomain/zero/1.0/)</dc:rights></rdf:description></rdf:rdf></metadata><mask id="viewboxMask"><rect width="600" height="600" rx="0" ry="0" x="0" y="0" fill="#fff"></rect></mask><g mask="url(#viewboxMask)"><rect fill="#ffffff" width="600" height="600" x="0" y="0"></rect><g transform="scale(-1 1) translate(-600 0)"><g transform="translate(-246 -234)"><path d="M467 377c15 1 32 5 44 15 4 3 8 7 9 11 1 3 1 5-2 6-3 0-6-3-8-5-11-8-24-13-38-13-8 0-15 2-23 4-15 3-29 11-38 23-3 3-5 7-10 8s-10-3-10-8c-1-4 2-8 4-11 12-15 30-25 49-29 7-2 15-2 23-1ZM672 387c5 2 10 7 13 11 3 3 5 7 5 11 0 6-6 10-12 8-5-2-6-7-10-11-4-3-9-7-13-8-12-4-24 1-32 9l-9 9c0-7 4-13 9-17 12-13 32-18 49-12Z" fill="#000000"></path></g><g transform="translate(-246 -234)"><path d="M685 500c2 0 5 0 6 2s-1 4-3 5l-19 10 11-1c4-1 7 0 10 3s3 7 1 10c-1 3-4 5-8 5-16 0-32 3-47 7-4 2-7 2-11 0-4-3-5-9-2-13 3-3 7-3 11-6 12-7 25-11 37-17l14-5ZM428 501c20 1 38 8 57 14l30 11c6 1 11 1 15 6 3 5 0 11-5 12-8 2-18-1-27-2-27-2-53-9-79-13-8-1-16-1-23-5-1-1-4-2-3-4 2-4 6-7 10-9 7-2 15 0 22 1 12 1 23 4 34 6l-25-8-15-4v-4l9-1Z" fill="#000000"></path></g><g transform="translate(-246 -234)"></g><g transform="translate(-246 -234)"><path fill-rule="evenodd" clip-rule="evenodd" d="m527 664 16 4 6 1a258 258 0 0 0 69 8c8 0 17 2 24 6 4 2 5 4 5 8l-6-2c-9-2-17-2-26-2h-8c1 6 0 11-2 16h3l12 1c2 0 4 1 5 3 0 3-2 3-4 4h-23a2932 2932 0 0 0-86-1l-2 1-1 1-3-2-27-2a3065 3065 0 0 0-8 0c-3-1-7-1-10-3l14-1h29c0-9-1-21 2-30-9 1-19 2-28 5-8 3-15 7-20 14l-4 4c-1 2-2 5-4 6l-2-1c0-4 0-10 2-14l11-11c10-7 24-10 36-12 10-1 20-2 30-1Zm-16 10a104 104 0 0 1 28 4l16 4v21l-18 1h-23v-3c1-9 2-19-3-27Zm89 13c-13 0-25-1-37-4 1 7 1 14-1 20h39c-2-5-2-11-1-16Z" fill="#000000"></path></g><g transform="translate(-246 -234)"><path d="M603 613v1c-4 8-11 15-20 18-3 1-7 1-9-1v-4c7-5 16-9 24-12l5-2Z" fill="#000000"></path></g><g transform="translate(-246 -234)"></g></g></g></svg>