<svg class="avatar" xmlns="http://www.w3.org/2000/svg" viewBox="0 0 560 560" fill="none" shape-rendering="auto"><metadata xmlns:rdf="http://www.w3.org/1999/02/22-rdf-syntax-ns#" xmlns:xsi="http://www.w3.org/2001/XMLSchema-instance" xmlns:dc="http://purl.org/dc/elements/1.1/" xmlns:dcterms="http://purl.org/dc/terms/"><rdf:rdf><rdf:description><dc:title>Notionists</dc:title><dc:creator>Zoish</dc:creator><dc:source xsi:type="dcterms:URI">https://heyzoish.gumroad.com/l/notionists</dc:source><dcterms:license xsi:type="dcterms:URI">https://creativecommons.org/publicdomain/zero/1.0/</dcterms:license><dc:rights>Remix of „Notionists” (https://heyzoish.gumroad.com/l/notionists) by „Zoish”, licensed under „CC0 1.0” (https://creativecommons.org/publicdomain/zero/1.0/)</dc:rights></rdf:description></rdf:rdf></metadata><mask id="viewboxMask"><rect width="560" height="560" rx="0" ry="0" x="0" y="0" fill="#fff"></rect></mask><g mask="url(#viewboxMask)"><rect fill="#ffffff" width="560" height="560" x="0" y="0"></rect><g transform="scale(-1 1) translate(-560 0)"><g transform="translate(136 328)"><path d="M185.6 59.2c7.2 8.7 9.1 20 20.2 25 4.5 2 2.4 7.7-2.9 9.1a31 31 0 0 1-10.1.5c-22.4-1.6-44.7-3.4-67.2.5-7.7 1.3-16-.3-24-.7-4.3-.2-7.5-2.4-8-6.8s3.5-6.4 6.5-6.5c13.7-.4 21-10.2 28.8-19 6.8-8 15-9.4 24.8-9.5 11.1-.2 22.7-4 32 7.4ZM170.2 119.5c-10 1.2-19.5 3.4-28-6.2 9.4-4.8 17.9-4.2 26-4.8 3-.2 6.9 1.9 7.6 5.7.5 2.9-2.3 4.1-5.6 5.3Z" fill="#000"></path></g><g transform="translate(246 125)"><path d="M68.7 106.5c6.5 23.1 15 44 30.2 62.1 6.2 7.4 3.6 18.1-3 24.6-13.8 13.4-29.3 24-50 15.6-5-2-9.2.5-13.7.9-9.5.8-16.6-1.5-16.6-14.3 13.2 2.4 25-7.3 38.9 1.2 6.2 3.9 17.9-.6 24.9-6 5.7-4.5 9.8-10.7 2.5-19.3-19-22.7-27-50.3-30-79.1a60 60 0 0 1 4.6-28.6C58.3 59 61.7 55 67.3 57c5.5 2 4.5 7.3 3 11-5.2 12.4-4 24.9-1.6 38.4Z" fill="#000"></path></g><g transform="translate(-45 137)"><path d="M215.1 76.6c5-12 9-29.4 24.1-22.5 20.7 9.4 13.9 30.7 9.7 47.4-1.6 6.3-14.5 15.9-18.3 14.3-16.3-6.8-19.2-21.7-15.5-39.2ZM442 113.4c-8.6 7.5-17 7.6-22.2-1.5-9-16-8.6-32.8 3.3-47.2 2.5-3 13.8-3.6 16.3-1 14 15 14.6 31.8 2.6 49.7Z" fill="#000"></path></g><g transform="translate(-45 137)"></g><g transform="translate(119 114)"><path d="M47.1 22c23.6-.3 45.4-8.9 68.1-5.8 18.2 2.5 36.3 4 54.6.9 6.6-1.2 11.6 2 13 12 1.5-13.5 13.4-12.8 17.1-11.2 15.5 6.6 30.2 1 44.9-.5 20-2 48.5 10.6 58.3 28.4a52 52 0 0 0 4.4 6.1c2.8 3.7 7.3 7.2 3 12.1-4.1 4.6-9.2 1.7-13-.3C289 59 280.8 53.7 273 48a18 18 0 0 0-19-2.4 76.4 76.4 0 0 1-38.9 4.4c-14.4-1.5-29.5 3.4-43 2-21.5-2.5-43.2 3.4-64.2-3.5-8.4-2.8-16.7-6.9-25.1.2-.9.7-2.7 1.3-3.6.9-12.3-6-24.4 0-36.4.1-10.2 0-20.2 3-30.3 1.6-3.8-.5-9.2 2-11-3.6-2-6.2 4-8.2 7.5-10.3C17.4 32.2 26 26.7 36.7 26c3.2-.2 6.3-2.4 10.4-4Z" fill="#000"></path></g></g></g></svg>